<?xml version="1.0" encoding="UTF-8"?>
<!DOCTYPE svg PUBLIC "-//W3C//DTD SVG 1.1//EN" "http://www.w3.org/Graphics/SVG/1.1/DTD/svg11.dtd">
<svg xmlns="http://www.w3.org/2000/svg" version="1.1" width="14px" height="17px" style="shape-rendering:geometricPrecision; text-rendering:geometricPrecision; image-rendering:optimizeQuality; fill-rule:evenodd; clip-rule:evenodd" xmlns:xlink="http://www.w3.org/1999/xlink">
<g><path style="opacity:0.86" fill="#656665" d="M -0.5,-0.5 C 3.5,-0.5 7.5,-0.5 11.5,-0.5C 12.7785,2.00241 12.7785,4.50241 11.5,7C 12.0442,7.71719 12.7109,8.21719 13.5,8.5C 13.5,10.5 13.5,12.5 13.5,14.5C 12.5,14.8333 11.8333,15.5 11.5,16.5C 7.5,16.5 3.5,16.5 -0.5,16.5C -0.5,10.8333 -0.5,5.16667 -0.5,-0.5 Z M 4.5,3.5 C 5.67504,3.28099 6.67504,3.61432 7.5,4.5C 5.94835,5.79789 4.94835,5.46455 4.5,3.5 Z M 4.5,9.5 C 6.34642,9.22216 7.67975,9.88882 8.5,11.5C 7.31116,12.4287 5.97782,12.762 4.5,12.5C 4.5,11.5 4.5,10.5 4.5,9.5 Z"/></g>
</svg>
