<?xml version="1.0" encoding="UTF-8"?>
<!DOCTYPE svg PUBLIC "-//W3C//DTD SVG 1.1//EN" "http://www.w3.org/Graphics/SVG/1.1/DTD/svg11.dtd">
<svg xmlns="http://www.w3.org/2000/svg" version="1.1" width="7px" height="9px" style="shape-rendering:geometricPrecision; text-rendering:geometricPrecision; image-rendering:optimizeQuality; fill-rule:evenodd; clip-rule:evenodd" xmlns:xlink="http://www.w3.org/1999/xlink">
<g><path style="opacity:0.733" fill="#cbcccb" d="M 0.5,-0.5 C 2.16667,-0.5 3.83333,-0.5 5.5,-0.5C 5.5,0.166667 5.83333,0.5 6.5,0.5C 6.5,2.16667 6.5,3.83333 6.5,5.5C 5.16667,6.16667 4.16667,7.16667 3.5,8.5C 2.83333,8.5 2.16667,8.5 1.5,8.5C 1.57298,6.97306 0.906316,5.97306 -0.5,5.5C -0.5,3.83333 -0.5,2.16667 -0.5,0.5C 0.166667,0.5 0.5,0.166667 0.5,-0.5 Z M 2.5,1.5 C 5.13678,3.15382 4.80345,3.65382 1.5,3C 2.05596,2.61742 2.38929,2.11742 2.5,1.5 Z"/></g>
</svg>
