<?xml version="1.0" encoding="UTF-8"?>
<!DOCTYPE svg PUBLIC "-//W3C//DTD SVG 1.1//EN" "http://www.w3.org/Graphics/SVG/1.1/DTD/svg11.dtd">
<svg xmlns="http://www.w3.org/2000/svg" version="1.1" width="19px" height="20px" style="shape-rendering:geometricPrecision; text-rendering:geometricPrecision; image-rendering:optimizeQuality; fill-rule:evenodd; clip-rule:evenodd" xmlns:xlink="http://www.w3.org/1999/xlink">
<g><path style="opacity:0.517" fill="#656665" d="M -0.5,-0.5 C 3.5,-0.5 7.5,-0.5 11.5,-0.5C 11.5,6.16667 11.5,12.8333 11.5,19.5C 7.5,19.5 3.5,19.5 -0.5,19.5C -0.5,12.8333 -0.5,6.16667 -0.5,-0.5 Z M 0.5,3.5 C 3.5,3.5 6.5,3.5 9.5,3.5C 9.5,7.5 9.5,11.5 9.5,15.5C 6.5,15.5 3.5,15.5 0.5,15.5C 0.5,11.5 0.5,7.5 0.5,3.5 Z"/></g>
<g><path style="opacity:0.532" fill="#656665" d="M 18.5,5.5 C 18.5,7.83333 18.5,10.1667 18.5,12.5C 17.5188,14.3092 16.0188,15.6426 14,16.5C 13.8333,16.1667 13.6667,15.8333 13.5,15.5C 14.3363,12.3598 14.5029,9.02644 14,5.5C 14.3076,4.69194 14.8076,4.02527 15.5,3.5C 16.5178,4.19251 17.5178,4.85917 18.5,5.5 Z"/></g>
</svg>
