<?xml version="1.0" encoding="UTF-8"?>
<!DOCTYPE svg PUBLIC "-//W3C//DTD SVG 1.1//EN" "http://www.w3.org/Graphics/SVG/1.1/DTD/svg11.dtd">
<svg xmlns="http://www.w3.org/2000/svg" version="1.1" width="22px" height="38px" style="shape-rendering:geometricPrecision; text-rendering:geometricPrecision; image-rendering:optimizeQuality; fill-rule:evenodd; clip-rule:evenodd" xmlns:xlink="http://www.w3.org/1999/xlink">
<g><path style="opacity:0.795" fill="#fefffe" d="M 16.5,-0.5 C 17.1667,-0.5 17.8333,-0.5 18.5,-0.5C 19.1667,0.833333 20.1667,1.83333 21.5,2.5C 21.5,3.83333 21.5,5.16667 21.5,6.5C 17.1712,10.1622 13.1712,14.1622 9.5,18.5C 13.1877,22.8544 17.1877,26.8544 21.5,30.5C 21.5,32.1667 21.5,33.8333 21.5,35.5C 19.9731,35.427 18.9731,36.0937 18.5,37.5C 18.1667,37.5 17.8333,37.5 17.5,37.5C 11.8333,31.1667 5.83333,25.1667 -0.5,19.5C -0.5,18.5 -0.5,17.5 -0.5,16.5C 5.57067,11.096 11.2373,5.42936 16.5,-0.5 Z"/></g>
</svg>
