<?xml version="1.0" encoding="UTF-8"?>
<!DOCTYPE svg PUBLIC "-//W3C//DTD SVG 1.1//EN" "http://www.w3.org/Graphics/SVG/1.1/DTD/svg11.dtd">
<svg xmlns="http://www.w3.org/2000/svg" version="1.1" width="22px" height="38px" style="shape-rendering:geometricPrecision; text-rendering:geometricPrecision; image-rendering:optimizeQuality; fill-rule:evenodd; clip-rule:evenodd" xmlns:xlink="http://www.w3.org/1999/xlink">
<g><path style="opacity:0.399" fill="#fefffe" d="M 2.5,-0.5 C 3.16667,-0.5 3.83333,-0.5 4.5,-0.5C 9.76266,5.42936 15.4293,11.096 21.5,16.5C 21.5,17.5 21.5,18.5 21.5,19.5C 15.1667,25.1667 9.16667,31.1667 3.5,37.5C 3.16667,37.5 2.83333,37.5 2.5,37.5C 2.02694,36.0937 1.02694,35.427 -0.5,35.5C -0.5,33.8333 -0.5,32.1667 -0.5,30.5C 3.8123,26.8544 7.8123,22.8544 11.5,18.5C 7.82883,14.1622 3.82883,10.1622 -0.5,6.5C -0.5,5.16667 -0.5,3.83333 -0.5,2.5C 0.833333,1.83333 1.83333,0.833333 2.5,-0.5 Z"/></g>
</svg>
